<mxfile host="app.diagrams.net" modified="2023-09-29T13:08:32.331Z" agent="Mozilla/5.0 (Macintosh; Intel Mac OS X 10.15; rv:109.0) Gecko/20100101 Firefox/118.0" etag="t8NN7GN_8XmOThAwHQqp" version="22.0.0" type="github">
  <diagram name="PÃ¡gina-1" id="_GgWmxlm4OWX5esp9CCm">
    <mxGraphModel dx="1098" dy="696" grid="1" gridSize="10" guides="1" tooltips="1" connect="1" arrows="1" fold="1" page="1" pageScale="1" pageWidth="827" pageHeight="1169" math="0" shadow="0">
      <root>
        <mxCell id="0" />
        <mxCell id="1" parent="0" />
        <mxCell id="37SFKcQwxXLXQhdy6OTW-1" style="edgeStyle=orthogonalEdgeStyle;rounded=0;orthogonalLoop=1;jettySize=auto;html=1;exitX=0.5;exitY=1;exitDx=0;exitDy=0;endArrow=none;endFill=0;" parent="1" source="37SFKcQwxXLXQhdy6OTW-2" target="37SFKcQwxXLXQhdy6OTW-5" edge="1">
          <mxGeometry relative="1" as="geometry" />
        </mxCell>
        <mxCell id="37SFKcQwxXLXQhdy6OTW-2" value="Persona" style="rounded=1;whiteSpace=wrap;html=1;" parent="1" vertex="1">
          <mxGeometry x="190" y="90" width="120" height="60" as="geometry" />
        </mxCell>
        <mxCell id="37SFKcQwxXLXQhdy6OTW-3" style="rounded=0;orthogonalLoop=1;jettySize=auto;html=1;entryX=0.5;entryY=0;entryDx=0;entryDy=0;exitX=0.5;exitY=0;exitDx=0;exitDy=0;endArrow=none;endFill=0;" parent="1" source="37SFKcQwxXLXQhdy6OTW-5" target="37SFKcQwxXLXQhdy6OTW-7" edge="1">
          <mxGeometry relative="1" as="geometry" />
        </mxCell>
        <mxCell id="37SFKcQwxXLXQhdy6OTW-4" style="rounded=0;orthogonalLoop=1;jettySize=auto;html=1;exitX=0.5;exitY=1;exitDx=0;exitDy=0;entryX=0.5;entryY=0;entryDx=0;entryDy=0;endArrow=none;endFill=0;" parent="1" source="37SFKcQwxXLXQhdy6OTW-5" target="37SFKcQwxXLXQhdy6OTW-6" edge="1">
          <mxGeometry relative="1" as="geometry" />
        </mxCell>
        <mxCell id="37SFKcQwxXLXQhdy6OTW-5" value="" style="triangle;whiteSpace=wrap;html=1;rotation=90;" parent="1" vertex="1">
          <mxGeometry x="231.88" y="175.00999999999976" width="36.25" height="46.25" as="geometry" />
        </mxCell>
        <mxCell id="37SFKcQwxXLXQhdy6OTW-6" value="Alumno" style="rounded=1;whiteSpace=wrap;html=1;" parent="1" vertex="1">
          <mxGeometry x="110" y="250" width="120" height="60" as="geometry" />
        </mxCell>
        <mxCell id="37SFKcQwxXLXQhdy6OTW-7" value="Profesor" style="rounded=1;whiteSpace=wrap;html=1;" parent="1" vertex="1">
          <mxGeometry x="270" y="250" width="120" height="60" as="geometry" />
        </mxCell>
        <mxCell id="37SFKcQwxXLXQhdy6OTW-8" value="" style="ellipse;whiteSpace=wrap;html=1;aspect=fixed;" parent="1" vertex="1">
          <mxGeometry x="244.99" y="160" width="10" height="10" as="geometry" />
        </mxCell>
        <mxCell id="37SFKcQwxXLXQhdy6OTW-9" value="" style="verticalLabelPosition=bottom;verticalAlign=top;html=1;shape=mxgraph.basic.arc;startAngle=0.3346265136651664;endAngle=0.6642442128803324;" parent="1" vertex="1">
          <mxGeometry x="190.01" y="150" width="120" height="77.5" as="geometry" />
        </mxCell>
        <mxCell id="37SFKcQwxXLXQhdy6OTW-10" style="edgeStyle=orthogonalEdgeStyle;rounded=0;orthogonalLoop=1;jettySize=auto;html=1;entryX=0;entryY=0.5;entryDx=0;entryDy=0;endArrow=none;endFill=0;" parent="1" source="37SFKcQwxXLXQhdy6OTW-11" target="37SFKcQwxXLXQhdy6OTW-44" edge="1">
          <mxGeometry relative="1" as="geometry">
            <mxPoint x="164.96" y="470.32000000000016" as="targetPoint" />
            <Array as="points">
              <mxPoint x="165" y="500" />
            </Array>
          </mxGeometry>
        </mxCell>
        <mxCell id="37SFKcQwxXLXQhdy6OTW-11" value="se_matricula" style="rhombus;whiteSpace=wrap;html=1;" parent="1" vertex="1">
          <mxGeometry x="114.99000000000021" y="350" width="100" height="80" as="geometry" />
        </mxCell>
        <mxCell id="37SFKcQwxXLXQhdy6OTW-12" style="edgeStyle=orthogonalEdgeStyle;rounded=0;orthogonalLoop=1;jettySize=auto;html=1;entryX=0.5;entryY=0;entryDx=0;entryDy=0;endArrow=none;endFill=0;" parent="1" target="37SFKcQwxXLXQhdy6OTW-11" edge="1">
          <mxGeometry relative="1" as="geometry">
            <mxPoint x="164.96" y="310.32000000000016" as="sourcePoint" />
          </mxGeometry>
        </mxCell>
        <mxCell id="37SFKcQwxXLXQhdy6OTW-13" value="&lt;div&gt;N&lt;/div&gt;&lt;div&gt;:&lt;/div&gt;&lt;div&gt;M&lt;br&gt;&lt;/div&gt;" style="text;html=1;align=center;verticalAlign=middle;resizable=0;points=[];autosize=1;strokeColor=none;fillColor=none;" parent="1" vertex="1">
          <mxGeometry x="214.99000000000018" y="360" width="30" height="60" as="geometry" />
        </mxCell>
        <mxCell id="37SFKcQwxXLXQhdy6OTW-14" value="N" style="text;html=1;align=center;verticalAlign=middle;resizable=0;points=[];autosize=1;strokeColor=none;fillColor=none;" parent="1" vertex="1">
          <mxGeometry x="164.9900000000002" y="310" width="30" height="30" as="geometry" />
        </mxCell>
        <mxCell id="37SFKcQwxXLXQhdy6OTW-15" value="1" style="text;html=1;align=center;verticalAlign=middle;resizable=0;points=[];autosize=1;strokeColor=none;fillColor=none;" parent="1" vertex="1">
          <mxGeometry x="134.9900000000002" y="310" width="30" height="30" as="geometry" />
        </mxCell>
        <mxCell id="37SFKcQwxXLXQhdy6OTW-16" value="1" style="text;html=1;align=center;verticalAlign=middle;resizable=0;points=[];autosize=1;strokeColor=none;fillColor=none;" parent="1" vertex="1">
          <mxGeometry x="240.00000000000023" y="470.00000000000045" width="30" height="30" as="geometry" />
        </mxCell>
        <mxCell id="37SFKcQwxXLXQhdy6OTW-17" value="N" style="text;html=1;align=center;verticalAlign=middle;resizable=0;points=[];autosize=1;strokeColor=none;fillColor=none;" parent="1" vertex="1">
          <mxGeometry x="240.00000000000023" y="500.00000000000045" width="30" height="30" as="geometry" />
        </mxCell>
        <mxCell id="37SFKcQwxXLXQhdy6OTW-26" style="edgeStyle=orthogonalEdgeStyle;rounded=0;orthogonalLoop=1;jettySize=auto;html=1;entryX=0.5;entryY=0;entryDx=0;entryDy=0;endArrow=none;endFill=0;" parent="1" source="37SFKcQwxXLXQhdy6OTW-27" edge="1">
          <mxGeometry relative="1" as="geometry">
            <mxPoint x="329.97" y="470.32000000000016" as="targetPoint" />
          </mxGeometry>
        </mxCell>
        <mxCell id="37SFKcQwxXLXQhdy6OTW-27" value="imparte" style="rhombus;whiteSpace=wrap;html=1;" parent="1" vertex="1">
          <mxGeometry x="280.0000000000002" y="350" width="100" height="80" as="geometry" />
        </mxCell>
        <mxCell id="37SFKcQwxXLXQhdy6OTW-28" style="edgeStyle=orthogonalEdgeStyle;rounded=0;orthogonalLoop=1;jettySize=auto;html=1;entryX=0.5;entryY=0;entryDx=0;entryDy=0;endArrow=none;endFill=0;" parent="1" target="37SFKcQwxXLXQhdy6OTW-27" edge="1">
          <mxGeometry relative="1" as="geometry">
            <mxPoint x="329.97" y="310.32000000000016" as="sourcePoint" />
          </mxGeometry>
        </mxCell>
        <mxCell id="37SFKcQwxXLXQhdy6OTW-29" value="&lt;div&gt;1&lt;/div&gt;&lt;div&gt;:&lt;/div&gt;&lt;div&gt;1&lt;br&gt;&lt;/div&gt;" style="text;html=1;align=center;verticalAlign=middle;resizable=0;points=[];autosize=1;strokeColor=none;fillColor=none;" parent="1" vertex="1">
          <mxGeometry x="380.00000000000017" y="360" width="30" height="60" as="geometry" />
        </mxCell>
        <mxCell id="37SFKcQwxXLXQhdy6OTW-30" value="1" style="text;html=1;align=center;verticalAlign=middle;resizable=0;points=[];autosize=1;strokeColor=none;fillColor=none;" parent="1" vertex="1">
          <mxGeometry x="330.0000000000002" y="310" width="30" height="30" as="geometry" />
        </mxCell>
        <mxCell id="37SFKcQwxXLXQhdy6OTW-31" value="1" style="text;html=1;align=center;verticalAlign=middle;resizable=0;points=[];autosize=1;strokeColor=none;fillColor=none;" parent="1" vertex="1">
          <mxGeometry x="300.0000000000002" y="310" width="30" height="30" as="geometry" />
        </mxCell>
        <mxCell id="37SFKcQwxXLXQhdy6OTW-32" value="1" style="text;html=1;align=center;verticalAlign=middle;resizable=0;points=[];autosize=1;strokeColor=none;fillColor=none;" parent="1" vertex="1">
          <mxGeometry x="330.0000000000002" y="440.00000000000045" width="30" height="30" as="geometry" />
        </mxCell>
        <mxCell id="37SFKcQwxXLXQhdy6OTW-33" value="1" style="text;html=1;align=center;verticalAlign=middle;resizable=0;points=[];autosize=1;strokeColor=none;fillColor=none;" parent="1" vertex="1">
          <mxGeometry x="300.0000000000002" y="440.00000000000045" width="30" height="30" as="geometry" />
        </mxCell>
        <mxCell id="37SFKcQwxXLXQhdy6OTW-42" value="es_parte" style="rhombus;whiteSpace=wrap;html=1;" parent="1" vertex="1">
          <mxGeometry x="440" y="460" width="100" height="80" as="geometry" />
        </mxCell>
        <mxCell id="37SFKcQwxXLXQhdy6OTW-43" style="edgeStyle=none;rounded=0;orthogonalLoop=1;jettySize=auto;html=1;exitX=1;exitY=0.5;exitDx=0;exitDy=0;entryX=0;entryY=0.5;entryDx=0;entryDy=0;endArrow=none;endFill=0;" parent="1" source="37SFKcQwxXLXQhdy6OTW-44" target="37SFKcQwxXLXQhdy6OTW-42" edge="1">
          <mxGeometry relative="1" as="geometry" />
        </mxCell>
        <mxCell id="37SFKcQwxXLXQhdy6OTW-44" value="asignatura" style="rounded=1;whiteSpace=wrap;html=1;" parent="1" vertex="1">
          <mxGeometry x="270" y="470" width="120" height="60" as="geometry" />
        </mxCell>
        <mxCell id="37SFKcQwxXLXQhdy6OTW-45" style="edgeStyle=none;rounded=0;orthogonalLoop=1;jettySize=auto;html=1;exitX=0;exitY=0.5;exitDx=0;exitDy=0;entryX=1;entryY=0.5;entryDx=0;entryDy=0;endArrow=none;endFill=0;" parent="1" source="37SFKcQwxXLXQhdy6OTW-46" target="37SFKcQwxXLXQhdy6OTW-42" edge="1">
          <mxGeometry relative="1" as="geometry" />
        </mxCell>
        <mxCell id="37SFKcQwxXLXQhdy6OTW-46" value="curso" style="rounded=1;whiteSpace=wrap;html=1;" parent="1" vertex="1">
          <mxGeometry x="590" y="470" width="120" height="60" as="geometry" />
        </mxCell>
        <mxCell id="37SFKcQwxXLXQhdy6OTW-47" value="1:N" style="text;html=1;align=center;verticalAlign=middle;resizable=0;points=[];autosize=1;strokeColor=none;fillColor=none;" parent="1" vertex="1">
          <mxGeometry x="470" y="430" width="40" height="30" as="geometry" />
        </mxCell>
        <mxCell id="37SFKcQwxXLXQhdy6OTW-48" value="1" style="text;html=1;align=center;verticalAlign=middle;resizable=0;points=[];autosize=1;strokeColor=none;fillColor=none;" parent="1" vertex="1">
          <mxGeometry x="390" y="470" width="30" height="30" as="geometry" />
        </mxCell>
        <mxCell id="37SFKcQwxXLXQhdy6OTW-49" value="1" style="text;html=1;align=center;verticalAlign=middle;resizable=0;points=[];autosize=1;strokeColor=none;fillColor=none;" parent="1" vertex="1">
          <mxGeometry x="390" y="500" width="30" height="30" as="geometry" />
        </mxCell>
        <mxCell id="37SFKcQwxXLXQhdy6OTW-50" value="N" style="text;html=1;align=center;verticalAlign=middle;resizable=0;points=[];autosize=1;strokeColor=none;fillColor=none;" parent="1" vertex="1">
          <mxGeometry x="560" y="470" width="30" height="30" as="geometry" />
        </mxCell>
        <mxCell id="37SFKcQwxXLXQhdy6OTW-51" value="1" style="text;html=1;align=center;verticalAlign=middle;resizable=0;points=[];autosize=1;strokeColor=none;fillColor=none;" parent="1" vertex="1">
          <mxGeometry x="560" y="500" width="30" height="30" as="geometry" />
        </mxCell>
        <mxCell id="37SFKcQwxXLXQhdy6OTW-52" style="edgeStyle=orthogonalEdgeStyle;rounded=0;orthogonalLoop=1;jettySize=auto;html=1;entryX=0.5;entryY=0;entryDx=0;entryDy=0;endArrow=none;endFill=0;" parent="1" source="37SFKcQwxXLXQhdy6OTW-53" edge="1">
          <mxGeometry relative="1" as="geometry">
            <mxPoint x="649.97" y="470.32000000000016" as="targetPoint" />
          </mxGeometry>
        </mxCell>
        <mxCell id="37SFKcQwxXLXQhdy6OTW-53" value="es_tutor" style="rhombus;whiteSpace=wrap;html=1;" parent="1" vertex="1">
          <mxGeometry x="600.0000000000002" y="320" width="100" height="80" as="geometry" />
        </mxCell>
        <mxCell id="37SFKcQwxXLXQhdy6OTW-54" style="edgeStyle=orthogonalEdgeStyle;rounded=0;orthogonalLoop=1;jettySize=auto;html=1;entryX=0.5;entryY=0;entryDx=0;entryDy=0;endArrow=none;endFill=0;exitX=1;exitY=0.5;exitDx=0;exitDy=0;" parent="1" source="37SFKcQwxXLXQhdy6OTW-7" target="37SFKcQwxXLXQhdy6OTW-53" edge="1">
          <mxGeometry relative="1" as="geometry">
            <mxPoint x="649.97" y="310.32000000000016" as="sourcePoint" />
          </mxGeometry>
        </mxCell>
        <mxCell id="37SFKcQwxXLXQhdy6OTW-55" value="&lt;div&gt;1&lt;/div&gt;&lt;div&gt;:&lt;/div&gt;&lt;div&gt;1&lt;br&gt;&lt;/div&gt;" style="text;html=1;align=center;verticalAlign=middle;resizable=0;points=[];autosize=1;strokeColor=none;fillColor=none;" parent="1" vertex="1">
          <mxGeometry x="700.0000000000002" y="330" width="30" height="60" as="geometry" />
        </mxCell>
        <mxCell id="37SFKcQwxXLXQhdy6OTW-56" value="1" style="text;html=1;align=center;verticalAlign=middle;resizable=0;points=[];autosize=1;strokeColor=none;fillColor=none;" parent="1" vertex="1">
          <mxGeometry x="390.0000000000002" y="250" width="30" height="30" as="geometry" />
        </mxCell>
        <mxCell id="37SFKcQwxXLXQhdy6OTW-57" value="1" style="text;html=1;align=center;verticalAlign=middle;resizable=0;points=[];autosize=1;strokeColor=none;fillColor=none;" parent="1" vertex="1">
          <mxGeometry x="390.0000000000002" y="280" width="30" height="30" as="geometry" />
        </mxCell>
        <mxCell id="37SFKcQwxXLXQhdy6OTW-58" value="1" style="text;html=1;align=center;verticalAlign=middle;resizable=0;points=[];autosize=1;strokeColor=none;fillColor=none;" parent="1" vertex="1">
          <mxGeometry x="650.0000000000002" y="440.00000000000045" width="30" height="30" as="geometry" />
        </mxCell>
        <mxCell id="37SFKcQwxXLXQhdy6OTW-59" value="1" style="text;html=1;align=center;verticalAlign=middle;resizable=0;points=[];autosize=1;strokeColor=none;fillColor=none;" parent="1" vertex="1">
          <mxGeometry x="620.0000000000002" y="440.00000000000045" width="30" height="30" as="geometry" />
        </mxCell>
        <mxCell id="37SFKcQwxXLXQhdy6OTW-60" style="edgeStyle=orthogonalEdgeStyle;rounded=0;orthogonalLoop=1;jettySize=auto;html=1;entryX=0.5;entryY=0;entryDx=0;entryDy=0;endArrow=none;endFill=0;" parent="1" source="37SFKcQwxXLXQhdy6OTW-61" edge="1">
          <mxGeometry relative="1" as="geometry">
            <mxPoint x="329.97" y="690.3200000000002" as="targetPoint" />
          </mxGeometry>
        </mxCell>
        <mxCell id="37SFKcQwxXLXQhdy6OTW-61" value="es_impartida" style="rhombus;whiteSpace=wrap;html=1;" parent="1" vertex="1">
          <mxGeometry x="280.0000000000002" y="570" width="100" height="80" as="geometry" />
        </mxCell>
        <mxCell id="37SFKcQwxXLXQhdy6OTW-62" style="edgeStyle=orthogonalEdgeStyle;rounded=0;orthogonalLoop=1;jettySize=auto;html=1;entryX=0.5;entryY=0;entryDx=0;entryDy=0;endArrow=none;endFill=0;" parent="1" target="37SFKcQwxXLXQhdy6OTW-61" edge="1">
          <mxGeometry relative="1" as="geometry">
            <mxPoint x="329.97" y="530.3200000000002" as="sourcePoint" />
          </mxGeometry>
        </mxCell>
        <mxCell id="37SFKcQwxXLXQhdy6OTW-63" value="&lt;div&gt;1&lt;/div&gt;&lt;div&gt;:&lt;/div&gt;&lt;div&gt;N&lt;/div&gt;" style="text;html=1;align=center;verticalAlign=middle;resizable=0;points=[];autosize=1;strokeColor=none;fillColor=none;" parent="1" vertex="1">
          <mxGeometry x="380.00000000000017" y="580" width="30" height="60" as="geometry" />
        </mxCell>
        <mxCell id="37SFKcQwxXLXQhdy6OTW-64" value="1" style="text;html=1;align=center;verticalAlign=middle;resizable=0;points=[];autosize=1;strokeColor=none;fillColor=none;" parent="1" vertex="1">
          <mxGeometry x="330.0000000000002" y="530" width="30" height="30" as="geometry" />
        </mxCell>
        <mxCell id="37SFKcQwxXLXQhdy6OTW-65" value="1" style="text;html=1;align=center;verticalAlign=middle;resizable=0;points=[];autosize=1;strokeColor=none;fillColor=none;" parent="1" vertex="1">
          <mxGeometry x="300.0000000000002" y="530" width="30" height="30" as="geometry" />
        </mxCell>
        <mxCell id="37SFKcQwxXLXQhdy6OTW-66" value="N" style="text;html=1;align=center;verticalAlign=middle;resizable=0;points=[];autosize=1;strokeColor=none;fillColor=none;" parent="1" vertex="1">
          <mxGeometry x="330.0000000000002" y="660.0000000000005" width="30" height="30" as="geometry" />
        </mxCell>
        <mxCell id="37SFKcQwxXLXQhdy6OTW-67" value="1" style="text;html=1;align=center;verticalAlign=middle;resizable=0;points=[];autosize=1;strokeColor=none;fillColor=none;" parent="1" vertex="1">
          <mxGeometry x="300.0000000000002" y="660.0000000000005" width="30" height="30" as="geometry" />
        </mxCell>
        <mxCell id="37SFKcQwxXLXQhdy6OTW-68" value="aula" style="rounded=1;whiteSpace=wrap;html=1;" parent="1" vertex="1">
          <mxGeometry x="270" y="690" width="120" height="60" as="geometry" />
        </mxCell>
        <mxCell id="W-2UYNl3Gm4y7LEK_sQw-1" value="&lt;div align=&quot;left&quot; title=&quot;Page 1&quot; class=&quot;page&quot;&gt;&lt;div class=&quot;layoutArea&quot;&gt;&lt;div class=&quot;column&quot;&gt;EJERCICIO 3&lt;br&gt;CENTRO DE ENSEÃANZA &lt;br&gt;&lt;/div&gt;&lt;/div&gt;&lt;/div&gt;" style="text;html=1;align=left;verticalAlign=middle;resizable=0;points=[];autosize=1;strokeColor=none;fillColor=none;" vertex="1" parent="1">
          <mxGeometry x="40" y="40" width="170" height="40" as="geometry" />
        </mxCell>
      </root>
    </mxGraphModel>
  </diagram>
</mxfile>
